<?xml version="1.0" encoding="UTF-8" standalone="no"?>
<!-- Created with Inkscape (http://www.inkscape.org/) -->

<svg
   xmlns:dc="http://purl.org/dc/elements/1.1/"
   xmlns:cc="http://creativecommons.org/ns#"
   xmlns:rdf="http://www.w3.org/1999/02/22-rdf-syntax-ns#"
   xmlns:svg="http://www.w3.org/2000/svg"
   xmlns="http://www.w3.org/2000/svg"
   version="1.1"
   width="300"
   height="150"
   id="svg5076">
  <defs
     id="defs5078">
    <linearGradient
       x1="384.30759"
       y1="183.24319"
       x2="384.30759"
       y2="165.24319"
       id="XMLID_140_"
       gradientUnits="userSpaceOnUse">
      <stop
         id="stop2839"
         style="stop-color:#3f3f3f;stop-opacity:1"
         offset="0" />
      <stop
         id="stop2841"
         style="stop-color:#1e1e1e;stop-opacity:1"
         offset="0.5" />
      <stop
         id="stop2843"
         style="stop-color:#393939;stop-opacity:1"
         offset="0.5" />
      <stop
         id="stop2845"
         style="stop-color:#2c2c2c;stop-opacity:1"
         offset="1" />
    </linearGradient>
    <linearGradient
       x1="384.30759"
       y1="183.24319"
       x2="384.30759"
       y2="165.24319"
       id="XMLID_140_-2"
       gradientUnits="userSpaceOnUse">
      <stop
         id="stop2839-6"
         style="stop-color:#3f3f3f;stop-opacity:1"
         offset="0" />
      <stop
         id="stop2841-3"
         style="stop-color:#1e1e1e;stop-opacity:1"
         offset="0.5" />
      <stop
         id="stop2843-3"
         style="stop-color:#393939;stop-opacity:1"
         offset="0.5" />
      <stop
         id="stop2845-6"
         style="stop-color:#2c2c2c;stop-opacity:1"
         offset="1" />
    </linearGradient>
    <linearGradient
       x1="384.30759"
       y1="183.24319"
       x2="384.30759"
       y2="165.24319"
       id="XMLID_140_-2-6"
       gradientUnits="userSpaceOnUse">
      <stop
         id="stop2839-6-3"
         style="stop-color:#3f3f3f;stop-opacity:1"
         offset="0" />
      <stop
         id="stop2841-3-9"
         style="stop-color:#1e1e1e;stop-opacity:1"
         offset="0.5" />
      <stop
         id="stop2843-3-7"
         style="stop-color:#393939;stop-opacity:1"
         offset="0.5" />
      <stop
         id="stop2845-6-7"
         style="stop-color:#2c2c2c;stop-opacity:1"
         offset="1" />
    </linearGradient>
  </defs>
  <metadata
     id="metadata5081">
    <rdf:RDF>
      <cc:Work
         rdf:about="">
        <dc:format>image/svg+xml</dc:format>
        <dc:type
           rdf:resource="http://purl.org/dc/dcmitype/StillImage" />
        <dc:title></dc:title>
      </cc:Work>
    </rdf:RDF>
  </metadata>
  <g
     transform="translate(0,-902.36218)"
     id="layer1">
    <path
       d="m 106.66491,1025.6431 c -4.37157,7.6187 -6.51995,15.532 -6.51995,25.532 l -95.0000006,0 c 0,-25 8.6911906,-49.87 19.8229306,-72.21125 5.85214,-11.74514 10.037,-16.3666 24.03061,-31.18161 8.57992,-9.0836 19.69621,-17.0971 27.81089,-21.8302 21.65707,-12.632 47.62529,-19.3104 72.6971,-19.3 25.00249,0.01 50.80069,6.8517 72.48012,19.3067 9.31893,5.3538 21.45138,15.0074 31.06632,25.2561 12.36563,13.18084 16.0065,16.6038 21.19878,26.71742 11.59531,22.58554 20.89324,48.24284 20.89324,73.24284 l -95,0 c 0,-10 -2.97297,-18.4689 -7.77791,-26.2141 -4.32483,-6.9712 -10.89215,-12.7083 -18.02989,-16.7525 -7.55047,-4.278 -16.32591,-7.2538 -25.00409,-7.2522 -8.68596,0 -17.53296,2.8711 -25.02367,7.2683 -7.12739,4.1838 -13.53128,10.2502 -17.64448,17.4185 z"
       id="path3166"
       style="fill:#808080;fill-opacity:1;fill-rule:evenodd;stroke:#000000;stroke-opacity:0.46759261;display:inline" />
  </g>
  <g
     id="layer8" />
  <g
     id="layer10">
    <g
       transform="translate(-295.69612,-230.70238)"
       id="g2828">
      <g
         transform="matrix(3.7190851,0,0,3.7193156,-1033.0332,-377.64992)"
         id="g2836">
        <linearGradient
           x1="384.30759"
           y1="183.24319"
           x2="384.30759"
           y2="165.24319"
           id="linearGradient9148"
           gradientUnits="userSpaceOnUse">
          <stop
             id="stop9150"
             style="stop-color:#3f3f3f;stop-opacity:1"
             offset="0" />
          <stop
             id="stop9152"
             style="stop-color:#1e1e1e;stop-opacity:1"
             offset="0.5" />
          <stop
             id="stop9154"
             style="stop-color:#393939;stop-opacity:1"
             offset="0.5" />
          <stop
             id="stop9156"
             style="stop-color:#2c2c2c;stop-opacity:1"
             offset="1" />
        </linearGradient>
        <polygon
           points="376.241,168.42 381.573,173.752 376.241,179.084 378.976,181.818 384.308,176.486 389.64,181.818 392.374,179.084 387.042,173.752 392.374,168.42 389.64,165.686 384.308,171.018 378.976,165.686 "
           transform="matrix(1.1570248,0,0,1.1570248,-47.003576,-23.45246)"
           id="polygon2847"
           style="fill:#c8c8c8;fill-opacity:1;stroke:#4d4d4d;stroke-width:0.34857723;stroke-opacity:1" />
      </g>
    </g>
  </g>
</svg>
