<?xml version="1.0" encoding="UTF-8" standalone="no"?>
<!-- Created with Inkscape (http://www.inkscape.org/) -->

<svg
   xmlns:dc="http://purl.org/dc/elements/1.1/"
   xmlns:cc="http://creativecommons.org/ns#"
   xmlns:rdf="http://www.w3.org/1999/02/22-rdf-syntax-ns#"
   xmlns:svg="http://www.w3.org/2000/svg"
   xmlns="http://www.w3.org/2000/svg"
   version="1.1"
   width="186"
   height="74"
   id="svg3035">
  <defs
     id="defs3037">
    <linearGradient
       id="linearGradient5345">
      <stop
         id="stop5347"
         style="stop-color:#4d4d4d;stop-opacity:1"
         offset="0" />
    </linearGradient>
    <filter
       color-interpolation-filters="sRGB"
       id="filter4487">
      <feGaussianBlur
         stdDeviation="3"
         id="feGaussianBlur4489" />
    </filter>
    <linearGradient
       id="linearGradient4330">
      <stop
         id="stop4332"
         style="stop-color:#000000;stop-opacity:1"
         offset="0" />
      <stop
         id="stop4334"
         style="stop-color:#000000;stop-opacity:0"
         offset="1" />
    </linearGradient>
    <filter
       color-interpolation-filters="sRGB"
       id="filter4390">
      <feGaussianBlur
         stdDeviation="3"
         id="feGaussianBlur4392" />
    </filter>
  </defs>
  <metadata
     id="metadata3040">
    <rdf:RDF>
      <cc:Work
         rdf:about="">
        <dc:format>image/svg+xml</dc:format>
        <dc:type
           rdf:resource="http://purl.org/dc/dcmitype/StillImage" />
        <dc:title></dc:title>
      </cc:Work>
    </rdf:RDF>
  </metadata>
  <g
     transform="translate(0,-978.36218)"
     id="layer1">
    <path
       d="m 14.87223,979.44822 155.25554,0 c 8.19158,0 14.78624,5.19701 14.78624,11.65247 l 0,49.52301 c 0,6.4555 -6.59466,11.6525 -14.78624,11.6525 l -155.255539,0 c -8.1915776,0 -14.78624132,-5.197 -14.78624132,-11.6525 l 0,-49.52301 c 0,-6.45546 6.59466372,-11.65247 14.78624032,-11.65247 z"
       id="rect3004"
       style="fill:#4d4d4d;fill-opacity:1;stroke:#000000;stroke-width:1.17197943;stroke-opacity:0.69411765;display:inline" />
    <g
       transform="translate(-10.400588,976.46319)"
       id="flowRoot3078"
       style="font-size:40px;font-style:normal;font-weight:normal;line-height:125%;letter-spacing:0px;word-spacing:0px;fill:#e6e6e6;fill-opacity:1;stroke:none;font-family:Sans">
      <path
         d="m 48.839844,56.153674 0,-35.791016 4.858398,0 18.798828,28.100586 0,-28.100586 4.541016,0 0,35.791016 -4.858399,0 -18.798828,-28.125 0,28.125 z"
         id="path3087"
         style="font-size:50px;fill:#e6e6e6;fill-opacity:1" />
      <path
         d="m 85.119141,56.153674 0,-35.791016 25.878909,0 0,4.223633 -21.142581,0 0,10.961914 19.799801,0 0,4.199219 -19.799801,0 0,12.182617 21.972661,0 0,4.223633 z"
         id="path3089"
         style="font-size:50px;fill:#e6e6e6;fill-opacity:1" />
      <path
         d="m 119.22559,56.153674 0,-35.791016 4.73632,0 0,35.791016 z"
         id="path3091"
         style="font-size:50px;fill:#e6e6e6;fill-opacity:1" />
      <path
         d="m 132.23828,56.153674 0,-35.791016 4.8584,0 18.79883,28.100586 0,-28.100586 4.54101,0 0,35.791016 -4.8584,0 -18.79882,-28.125 0,28.125 z"
         id="path3093"
         style="font-size:50px;fill:#e6e6e6;fill-opacity:1" />
    </g>
  </g>
  <g
     id="layer2" />
</svg>
