<?xml version="1.0" encoding="UTF-8" standalone="no"?>
<!-- Created with Inkscape (http://www.inkscape.org/) -->

<svg
   xmlns:dc="http://purl.org/dc/elements/1.1/"
   xmlns:cc="http://creativecommons.org/ns#"
   xmlns:rdf="http://www.w3.org/1999/02/22-rdf-syntax-ns#"
   xmlns:svg="http://www.w3.org/2000/svg"
   xmlns="http://www.w3.org/2000/svg"
   version="1.2"
   width="150"
   height="150"
   id="svg5170">
  <defs
     id="defs5172" />
  <metadata
     id="metadata5175">
    <rdf:RDF>
      <cc:Work
         rdf:about="">
        <dc:format>image/svg+xml</dc:format>
        <dc:type
           rdf:resource="http://purl.org/dc/dcmitype/StillImage" />
        <dc:title></dc:title>
      </cc:Work>
    </rdf:RDF>
  </metadata>
  <g
     id="layer4"
     style="display:inline">
    <path
       d="m 99.267755,149.30103 -94.9999977,0 c 0,0 4.0897999,-35.74165 10.8928507,-52.142864 7.5272,-18.147015 18.57136,-35.253303 32.32143,-49.285711 C 60.158185,34.936013 75.702725,24.400523 92.303465,17.15817 110.14523,9.3744057 149.26776,4.3010254 149.26776,4.3010254 l 0,94.9999986 c 0,0 -13.38345,1.457916 -19.64286,3.750006 -6.03165,2.20869 -12.1926,4.974 -16.78571,9.46428 -5.00025,4.88831 -8.35839,11.45181 -10.71428,18.03572 -2.129971,5.95254 -2.857155,18.75 -2.857155,18.75 z"
       id="path5162-1"
       style="fill:#808080;fill-opacity:1;fill-rule:evenodd;stroke:#000000;stroke-opacity:0.46759261" />
    <path
       d="m 70,35 a 30,30 0 1 1 -60,0 30,30 0 1 1 60,0 z"
       transform="matrix(-0.81110159,0.81110159,-0.81110159,-0.81110159,140.72549,75.712492)"
       id="path3016"
       style="fill:#0000be;fill-opacity:1;fill-rule:evenodd;stroke:#140dff;stroke-width:1.02499998;stroke-opacity:1" />
    <g
       transform="matrix(-0.83137913,0.83137913,-0.83137913,-0.83137913,124.68498,91.692943)"
       id="flowRoot5195"
       style="font-size:40px;font-style:normal;font-weight:normal;line-height:125%;letter-spacing:0px;word-spacing:0px;fill:#f2f2f2;fill-opacity:1;stroke:none;font-family:Sans">
      <path
         d="m 29.994629,27.538086 c -2.5e-5,1.472681 -0.296167,2.801049 -0.888428,3.985107 -0.592308,1.184104 -1.304221,2.167989 -2.135742,2.951661 -0.831564,0.78371 -1.671406,1.535662 -2.519531,2.255859 -0.848163,0.720231 -1.568377,1.536148 -2.160645,2.447754 -0.592301,0.911635 -0.888443,1.879651 -0.888428,2.904053 l 0,2.255859 -4.319824,0 0,-2.639649 c -1.1e-5,-1.18358 0.296131,-2.303452 0.888428,-3.359619 0.592272,-1.056135 1.312242,-1.968244 2.159912,-2.736328 0.847641,-0.768047 1.687484,-1.536113 2.519531,-2.304199 0.832014,-0.768045 1.544171,-1.640115 2.136475,-2.616211 0.592265,-0.97605 0.888408,-2.024145 0.888428,-3.144287 -2e-5,-1.631808 -0.560078,-2.951631 -1.680176,-3.959473 -1.120135,-1.007781 -2.608414,-1.511687 -4.464844,-1.511718 -2.335949,3.1e-5 -3.951914,0.656037 -4.8479,1.968017 -0.896005,1.31204 -1.344002,3.152126 -1.343994,5.520264 l -4.0795902,0 c -3.7e-6,-3.680636 0.8879352,-6.47287 2.6638182,-8.376709 1.775871,-1.903774 4.391835,-2.855678 7.847901,-2.855713 3.104474,3.5e-5 5.584697,0.832066 7.440673,2.496094 1.855934,1.664094 2.783911,3.903837 2.783936,6.719238 z m -8.592774,21.360351 0,4.992188 -4.319824,0 0,-4.992188 z"
         id="path5361"
         style="font-size:48px;font-variant:normal;font-stretch:normal;fill:#f2f2f2;font-family:FreeSans;-inkscape-font-specification:FreeSans" />
    </g>
  </g>
</svg>
