<?xml version="1.0" encoding="UTF-8" standalone="no"?>
<!-- Created with Inkscape (http://www.inkscape.org/) -->

<svg
   xmlns:dc="http://purl.org/dc/elements/1.1/"
   xmlns:cc="http://creativecommons.org/ns#"
   xmlns:rdf="http://www.w3.org/1999/02/22-rdf-syntax-ns#"
   xmlns:svg="http://www.w3.org/2000/svg"
   xmlns="http://www.w3.org/2000/svg"
   version="1.1"
   width="150"
   height="150"
   id="svg5170"
   style="display:inline">
  <defs
     id="defs5172" />
  <metadata
     id="metadata5175">
    <rdf:RDF>
      <cc:Work
         rdf:about="">
        <dc:format>image/svg+xml</dc:format>
        <dc:type
           rdf:resource="http://purl.org/dc/dcmitype/StillImage" />
        <dc:title></dc:title>
      </cc:Work>
    </rdf:RDF>
  </metadata>
  <g
     id="layer4"
     style="display:inline">
    <path
       d="m 50.788256,0.69631894 94.999994,0 c 0,0 -4.0898,35.74165006 -10.89285,52.14286006 -7.5272,18.147015 -18.57136,35.253303 -32.32143,49.285701 -12.676151,12.93645 -28.220691,23.47194 -44.821431,30.71429 -17.841753,7.78376 -56.96428303,12.85714 -56.96428303,12.85714 l 0,-94.999989 c 0,0 13.38345003,-1.457912 19.64286003,-3.750002 6.03165,-2.20869 12.1926,-4.974 16.78571,-9.46428 5.00025,-4.88831 8.35839,-11.45181 10.71428,-18.03572 2.12997,-5.95254 2.85715,-18.75000006 2.85715,-18.75000006 z"
       id="path5162-1"
       style="fill:#808080;fill-opacity:1;fill-rule:evenodd;stroke:#000000;stroke-opacity:0.46759261" />
    <g
       transform="matrix(0.91814424,-0.91814424,0.91814424,0.91814424,4.1877432,69.192855)"
       id="g6013"
       style="display:inline">
      <path
         d="M 13.9059,31.72503 36.748646,38.762256 56.332068,31.75046 33.571428,25.892857 z"
         id="path5747-8"
         style="fill:#efc500;fill-opacity:1;fill-rule:evenodd;stroke:#efc500;stroke-width:0.96908617;stroke-opacity:1;display:inline" />
      <path
         d="m 36.748646,38.762256 0,25.842484 19.583422,-9.264504 0,-23.589776 z"
         id="path5749-0"
         style="fill:#ffd40d;fill-opacity:1;fill-rule:evenodd;stroke:#efc500;stroke-width:0.96908617;stroke-opacity:1;display:inline" />
      <path
         d="m 13.9059,31.72503 22.842746,7.037226 0,25.842484 L 13.9059,55.083361 z"
         id="path5751-9"
         style="fill:#fedf4e;fill-opacity:1;fill-rule:evenodd;stroke:#efc500;stroke-width:0.96908617;stroke-opacity:1;display:inline" />
      <path
         d="m 30.004464,6.4285715 0,15.3437505 -4.59375,0 9.75,12.375 9.75,-12.375 -4.90625,0 0,-15.3437505 -10,0 z"
         id="rect5715"
         style="fill:#48bd0d;fill-opacity:1;fill-rule:evenodd;stroke:#498900;stroke-width:0.44721359;stroke-opacity:1;display:inline" />
    </g>
  </g>
</svg>
