<?xml version="1.0" encoding="UTF-8" standalone="no"?>
<!-- Created with Inkscape (http://www.inkscape.org/) -->

<svg
   xmlns:dc="http://purl.org/dc/elements/1.1/"
   xmlns:cc="http://creativecommons.org/ns#"
   xmlns:rdf="http://www.w3.org/1999/02/22-rdf-syntax-ns#"
   xmlns:svg="http://www.w3.org/2000/svg"
   xmlns="http://www.w3.org/2000/svg"
   version="1.2"
   width="186"
   height="74"
   id="svg3035">
  <defs
     id="defs3037">
    <linearGradient
       id="linearGradient5345">
      <stop
         id="stop5347"
         style="stop-color:#4d4d4d;stop-opacity:1"
         offset="0" />
    </linearGradient>
    <filter
       color-interpolation-filters="sRGB"
       id="filter4487">
      <feGaussianBlur
         stdDeviation="3"
         id="feGaussianBlur4489" />
    </filter>
    <linearGradient
       id="linearGradient4330">
      <stop
         id="stop4332"
         style="stop-color:#000000;stop-opacity:1"
         offset="0" />
      <stop
         id="stop4334"
         style="stop-color:#000000;stop-opacity:0"
         offset="1" />
    </linearGradient>
    <filter
       color-interpolation-filters="sRGB"
       id="filter4390">
      <feGaussianBlur
         stdDeviation="3"
         id="feGaussianBlur4392" />
    </filter>
  </defs>
  <metadata
     id="metadata3040">
    <rdf:RDF>
      <cc:Work
         rdf:about="">
        <dc:format>image/svg+xml</dc:format>
        <dc:type
           rdf:resource="http://purl.org/dc/dcmitype/StillImage" />
        <dc:title></dc:title>
      </cc:Work>
    </rdf:RDF>
  </metadata>
  <g
     transform="translate(0,-978.36218)"
     id="layer1">
    <path
       d="m 14.87223,979.44822 155.25554,0 c 8.19158,0 14.78624,5.19701 14.78624,11.65247 l 0,49.52301 c 0,6.4555 -6.59466,11.6525 -14.78624,11.6525 l -155.255539,0 c -8.1915776,0 -14.78624132,-5.197 -14.78624132,-11.6525 l 0,-49.52301 c 0,-6.45546 6.59466372,-11.65247 14.78624032,-11.65247 z"
       id="rect3004"
       style="fill:#4d4d4d;fill-opacity:1;stroke:#000000;stroke-width:1.17197943;stroke-opacity:0.69411765;display:inline" />
    <g
       transform="translate(-2.5,994.93924)"
       id="flowRoot5351"
       style="font-size:50px;font-style:normal;font-weight:normal;text-align:center;line-height:125%;letter-spacing:0px;word-spacing:0px;text-anchor:middle;fill:#e6e6e6;fill-opacity:1;stroke:none;font-family:Sans;-inkscape-font-specification:Sans">
      <path
         d="m 61.28418,21.784533 c -3e-6,-5.940732 1.595048,-10.591606 4.785156,-13.9526365 3.190094,-3.3609679 7.307928,-5.0414675 12.353516,-5.0415039 3.304013,3.64e-5 6.282526,0.7894236 8.935546,2.368164 2.652964,1.5788086 4.67526,3.780141 6.066895,6.6040044 1.391566,2.823917 2.087366,6.026225 2.087402,9.606933 -3.6e-5,3.629572 -0.732457,6.876639 -2.197265,9.741211 -1.464877,2.864589 -3.54007,5.033369 -6.225586,6.506348 -2.685573,1.472982 -5.582705,2.209472 -8.691407,2.209472 -3.369156,0 -6.380221,-0.813801 -9.033203,-2.441406 C 66.712232,35.757518 64.702143,33.535841 63.334961,30.72008 61.96777,27.904336 61.284177,24.925824 61.28418,21.784533 z m 4.882812,0.07324 c -7e-6,4.313164 1.15966,7.710785 3.479004,10.192871 2.319323,2.482102 5.228662,3.723148 8.728027,3.723145 3.56443,3e-6 6.498184,-1.25325 8.80127,-3.759766 2.303029,-2.5065 3.454558,-6.062812 3.45459,-10.668945 -3.2e-5,-2.913391 -0.492382,-5.45652 -1.477051,-7.629394 C 88.168102,11.542862 86.727674,9.858293 84.831543,8.6619746 82.93536,7.4657173 80.80727,6.8675734 78.447266,6.867541 c -3.352881,3.24e-5 -6.237807,1.1515612 -8.654786,3.45459 -2.417,2.303086 -3.625495,6.148297 -3.625488,11.535644 z"
         id="path5362"
         style="fill:#e6e6e6;fill-opacity:1" />
      <path
         d="m 101.39648,39.216174 0,-35.7910158 4.73633,0 0,17.7490238 17.77344,-17.7490238 6.4209,0 -15.01465,14.5019528 15.67383,21.289063 -6.25,0 -12.74414,-18.115235 -5.85938,5.712891 0,12.402344 z"
         id="path5364"
         style="fill:#e6e6e6;fill-opacity:1" />
    </g>
  </g>
</svg>
