<?xml version="1.0" encoding="UTF-8" standalone="no"?>
<!-- Created with Inkscape (http://www.inkscape.org/) -->

<svg
   xmlns:dc="http://purl.org/dc/elements/1.1/"
   xmlns:cc="http://creativecommons.org/ns#"
   xmlns:rdf="http://www.w3.org/1999/02/22-rdf-syntax-ns#"
   xmlns:svg="http://www.w3.org/2000/svg"
   xmlns="http://www.w3.org/2000/svg"
   xmlns:xlink="http://www.w3.org/1999/xlink"
   version="1.1"
   width="150"
   height="150"
   id="svg5170">
  <defs
     id="defs5172">
    <radialGradient
       cx="308.52896"
       cy="465.10486"
       r="68.158737"
       fx="308.52896"
       fy="465.10486"
       id="radialGradient2236"
       xlink:href="#linearGradient3215"
       gradientUnits="userSpaceOnUse"
       gradientTransform="matrix(0.777169,0,0,0.777169,-135.831,-83.9825)" />
    <linearGradient
       id="linearGradient3215">
      <stop
         id="stop3217"
         style="stop-color:#1a1a1a;stop-opacity:0.68553501"
         offset="0" />
      <stop
         id="stop3219"
         style="stop-color:#1a1a1a;stop-opacity:0"
         offset="1" />
    </linearGradient>
  </defs>
  <metadata
     id="metadata5175">
    <rdf:RDF>
      <cc:Work
         rdf:about="">
        <dc:format>image/svg+xml</dc:format>
        <dc:type
           rdf:resource="http://purl.org/dc/dcmitype/StillImage" />
        <dc:title></dc:title>
      </cc:Work>
    </rdf:RDF>
  </metadata>
  <g
     id="layer5"
     style="display:none" />
  <g
     id="layer4"
     style="display:inline">
    <path
       d="m 149.19643,50.803567 0,94.999993 c 0,0 -35.74165,-4.0898 -52.142863,-10.89285 C 78.906552,127.38351 61.800264,116.33935 47.767856,102.58928 34.831414,89.913137 24.295924,74.368597 17.053571,57.767857 9.2698077,39.926097 4.1964277,0.80356714 4.1964277,0.80356714 l 94.9999973,0 c 0,0 1.457905,13.38344986 3.750005,19.64285986 2.20869,6.03165 4.974,12.1926 9.46428,16.78571 4.88831,5.00025 11.45181,8.35839 18.03572,10.71428 5.95254,2.12997 18.75,2.85715 18.75,2.85715 z"
       id="path5162-1"
       style="fill:#808080;fill-opacity:1;fill-rule:evenodd;stroke:#000000;stroke-opacity:0.46759261" />
    <g
       transform="translate(-160,24.999997)"
       id="layer2"
       style="fill:#000000;display:inline" />
    <g
       transform="translate(-160,24.999997)"
       id="layer3"
       style="fill:#000000" />
  </g>
  <g
     id="layer6"
     style="display:inline">
    <path
       d="m -45,87.5 a 35,47.5 0 1 1 -70,0 35,47.5 0 1 1 70,0 z"
       transform="matrix(0.58962724,0.58962724,-0.58962724,0.58962724,178.69863,65.357182)"
       id="path3957"
       style="fill:#0000be;fill-opacity:1;fill-rule:evenodd;stroke:#140dff;stroke-width:0.5;stroke-opacity:1;display:inline" />
  </g>
  <g
     id="layer8"
     style="display:inline">
    <g
       transform="matrix(0.58962724,0.58962724,-0.58962724,0.58962724,160.99485,30.530265)"
       id="g4538"
       style="display:inline">
      <path
         d="m 100.75,44.71875 c -0.57602,0 -1.15426,0.21676 -1.59375,0.65625 -0.05713,0.05713 -0.106544,0.126052 -0.15625,0.1875 l -18,18 0,-16.4375 c 0.04067,-0.210036 0.04067,-0.414964 0,-0.625 -0.061,-0.315055 -0.224757,-0.631007 -0.46875,-0.875 -0.650648,-0.650648 -1.693102,-0.650648 -2.34375,0 -0.243993,0.243993 -0.407752,0.559945 -0.46875,0.875 l -0.03125,0 0,0.3125 0,19.8125 -19.21875,0 c -0.578629,-0.191844 -1.227075,-0.05418 -1.6875,0.40625 -0.650012,0.650012 -0.650013,1.693737 0,2.34375 0.259844,0.259844 0.568928,0.416653 0.90625,0.46875 l 0,0.09375 16.9375,0 -18.03125,18.03125 0.0625,0.0625 c -0.757664,0.8843 -0.712218,2.225282 0.125,3.0625 0.549363,0.549363 1.320591,0.762341 2.03125,0.625 l 0,0.21875 20.5,0 0,-1.875 1.6875,0 0,-20.125 19.8125,0 c 0.57745,0.1118 1.20905,-0.0528 1.65625,-0.5 0.34163,-0.341632 0.51585,-0.771201 0.53125,-1.21875 l 0.0312,0 0,-20.96875 -0.0625,0 c 0.0823,-0.66474 -0.11468,-1.364679 -0.625,-1.875 -0.43949,-0.43949 -1.01773,-0.65625 -1.59375,-0.65625 z m -1.03125,4.8125 0,17.09375 -17.09375,0 17.09375,-17.09375 z M 77.6875,71.5625 l 0,17.0625 -17.0625,0 17.0625,-17.0625 z"
         transform="matrix(0.84799339,-0.84799339,0.84799339,0.84799339,-162.41203,110.63311)"
         id="svg_9"
         style="fill:#ffffff;stroke-width:2.6687851;stroke-linejoin:round;display:inline" />
      <path
         d="m 88.694146,85.898437 c 0,1.212438 -0.982875,2.195313 -2.195313,2.195313 -1.212438,0 -2.195313,-0.982875 -2.195313,-2.195313 0,-1.212437 0.982875,-2.195312 2.195313,-2.195312 1.212438,0 2.195313,0.982875 2.195313,2.195312 z"
         transform="translate(-105.33157,34.031733)"
         id="svg_11"
         style="fill:#ffffff;stroke-width:2.6687851;stroke-linejoin:round;display:inline" />
    </g>
  </g>
</svg>
