<?xml version="1.0" encoding="UTF-8" standalone="no"?>
<!-- Created with Inkscape (http://www.inkscape.org/) -->

<svg
   xmlns:dc="http://purl.org/dc/elements/1.1/"
   xmlns:cc="http://creativecommons.org/ns#"
   xmlns:rdf="http://www.w3.org/1999/02/22-rdf-syntax-ns#"
   xmlns:svg="http://www.w3.org/2000/svg"
   xmlns="http://www.w3.org/2000/svg"
   version="1.1"
   width="320"
   height="320"
   id="svg3758">
  <defs
     id="defs3760">
    <filter
       color-interpolation-filters="sRGB"
       id="filter3735">
      <feGaussianBlur
         stdDeviation="1"
         result="result6"
         id="feGaussianBlur3737" />
      <feComposite
         in2="result6"
         operator="atop"
         in="SourceGraphic"
         result="result8"
         id="feComposite3739" />
      <feComposite
         in2="SourceAlpha"
         operator="atop"
         in="result8"
         result="result9"
         id="feComposite3741" />
    </filter>
    <filter
       color-interpolation-filters="sRGB"
       id="filter3727">
      <feGaussianBlur
         stdDeviation="1"
         result="result6"
         id="feGaussianBlur3729" />
      <feComposite
         in2="result6"
         operator="atop"
         in="SourceGraphic"
         result="result8"
         id="feComposite3731" />
      <feComposite
         in2="SourceAlpha"
         operator="atop"
         in="result8"
         result="result9"
         id="feComposite3733" />
    </filter>
    <filter
       color-interpolation-filters="sRGB"
       id="filter4682">
      <feGaussianBlur
         id="feGaussianBlur4684"
         stdDeviation="2.9296875" />
    </filter>
    <filter
       color-interpolation-filters="sRGB"
       id="filter4686">
      <feGaussianBlur
         id="feGaussianBlur4688"
         stdDeviation="2.9296875" />
    </filter>
    <filter
       color-interpolation-filters="sRGB"
       id="filter4722">
      <feGaussianBlur
         id="feGaussianBlur4724"
         stdDeviation="2.2851562" />
    </filter>
    <filter
       color-interpolation-filters="sRGB"
       id="filter4722-4">
      <feGaussianBlur
         id="feGaussianBlur4724-6"
         stdDeviation="2.2851562" />
    </filter>
  </defs>
  <metadata
     id="metadata3763">
    <rdf:RDF>
      <cc:Work
         rdf:about="">
        <dc:format>image/svg+xml</dc:format>
        <dc:type
           rdf:resource="http://purl.org/dc/dcmitype/StillImage" />
        <dc:title></dc:title>
      </cc:Work>
    </rdf:RDF>
  </metadata>
  <g
     transform="translate(0,-732.36217)"
     id="layer1"
     style="display:inline">
    <g
       transform="translate(-90,90)"
       id="g3781"
       style="stroke:#000000;stroke-opacity:0.46296297;display:inline;filter:url(#filter4686)">
      <path
         d="m 430,832.36218 c 0,82.84272 -67.15729,150 -150,150 -82.84271,0 -150,-67.15728 -150,-150 0,-82.84271 67.15729,-150 150,-150 82.84271,0 150,67.15729 150,150 z"
         transform="translate(-30,-30)"
         id="path3108"
         style="fill:#666666;fill-opacity:1;fill-rule:evenodd;stroke:#000000;stroke-opacity:0.46296297" />
    </g>
    <path
       d="m 205,892.36218 c 0,24.85282 -20.14719,45 -45,45 -24.85281,0 -45,-20.14718 -45,-45 0,-24.85281 20.14719,-45 45,-45 24.85281,0 45,20.14719 45,45 z"
       id="path3116"
       style="fill:#4d4d4d;fill-opacity:1;fill-rule:evenodd;stroke:#000000;stroke-opacity:0.46296297;filter:url(#filter4682)" />
  </g>
  <g
     transform="translate(0,-732.36217)"
     id="g4674"
     style="display:inline">
    <g
       id="g4800">
      <g
         id="g4793">
        <g
           transform="translate(-90,90)"
           id="g4676"
           style="stroke:#000000;stroke-opacity:0.46296297;display:inline">
          <path
             d="m 430,832.36218 c 0,82.84272 -67.15729,150 -150,150 -82.84271,0 -150,-67.15728 -150,-150 0,-82.84271 67.15729,-150 150,-150 82.84271,0 150,67.15729 150,150 z"
             transform="translate(-30,-30)"
             id="path4678"
             style="fill:#666666;fill-opacity:1;fill-rule:evenodd;stroke:#000000;stroke-opacity:0.46296297" />
        </g>
      </g>
    </g>
  </g>
  <g
     transform="translate(0,-732.36217)"
     id="g4698"
     style="display:none">
    <g
       transform="translate(-90,90)"
       id="g4700"
       style="stroke:#000000;stroke-opacity:0.46296297;display:inline">
      <path
         d="m 430,832.36218 c 0,82.84272 -67.15729,150 -150,150 -82.84271,0 -150,-67.15728 -150,-150 0,-82.84271 67.15729,-150 150,-150 82.84271,0 150,67.15729 150,150 z"
         transform="translate(-30,-30)"
         id="path4702"
         style="fill:#666666;fill-opacity:1;fill-rule:evenodd;stroke:#000000;stroke-opacity:0.46296297" />
    </g>
  </g>
  <g
     id="layer4"
     style="display:inline">
    <path
       d="m 205,160 c 0,24.85282 -20.14719,45 -45,45 -24.85281,0 -45,-20.14718 -45,-45 0,-24.85281 20.14719,-45 45,-45 24.85281,0 45,20.14719 45,45 z"
       id="path4704"
       style="fill:#4d4d4d;fill-opacity:1;fill-rule:evenodd;stroke:#000000;stroke-opacity:0.46296297;display:inline" />
  </g>
  <g
     id="layer5">
    <g
       id="g4797">
      <path
         d="m 205,892.36218 c 0,24.85282 -20.14719,45 -45,45 -24.85281,0 -45,-20.14718 -45,-45 0,-24.85281 20.14719,-45 45,-45 24.85281,0 45,20.14719 45,45 z"
         transform="matrix(0.94444446,0,0,0.94444446,9.388887,-682.78652)"
         id="path4680"
         style="fill:#4d4d4d;fill-opacity:1;fill-rule:evenodd;stroke:#000000;stroke-opacity:0.83333333;display:inline;filter:url(#filter4722-4)" />
    </g>
  </g>
</svg>
