<?xml version="1.0" encoding="UTF-8" standalone="no"?>
<!-- Created with Inkscape (http://www.inkscape.org/) -->

<svg
   xmlns:dc="http://purl.org/dc/elements/1.1/"
   xmlns:cc="http://creativecommons.org/ns#"
   xmlns:rdf="http://www.w3.org/1999/02/22-rdf-syntax-ns#"
   xmlns:svg="http://www.w3.org/2000/svg"
   xmlns="http://www.w3.org/2000/svg"
   version="1.1"
   width="383"
   height="495"
   id="svg4738">
  <defs
     id="defs4740">
    <filter
       color-interpolation-filters="sRGB"
       id="filter4705">
      <feGaussianBlur
         id="feGaussianBlur4707"
         stdDeviation="2.1350118" />
    </filter>
  </defs>
  <metadata
     id="metadata4743">
    <rdf:RDF>
      <cc:Work
         rdf:about="">
        <dc:format>image/svg+xml</dc:format>
        <dc:type
           rdf:resource="http://purl.org/dc/dcmitype/StillImage" />
        <dc:title></dc:title>
      </cc:Work>
    </rdf:RDF>
  </metadata>
  <g
     transform="translate(0,-557.36218)"
     id="layer1">
    <path
       d="m 63.704173,563.737 127.419857,0 129.01607,0 c 27.96353,0 56.48512,30.10916 56.48512,56.40871 l 0,369.4633 c 0,25.38419 -27.62151,57.13029 -56.66189,57.13029 l -256.149437,0 c -27.77574,0 -58.1910502,-25.9669 -58.1910502,-57.48385 l 0,-368.1932 c 0,-21.82575 35.0363002,-57.32525 58.0813302,-57.32525 z"
       id="rect3007"
       style="fill:#666666;fill-opacity:1;fill-rule:evenodd;stroke:#000000;stroke-width:0.99762845;stroke-opacity:0.30980392;filter:url(#filter4705)" />
    <path
       d="m 63.704173,563.737 127.419857,0 129.01607,0 c 27.96353,0 56.48512,30.10916 56.48512,56.40871 l 0,369.4633 c 0,25.38419 -27.62151,57.13029 -56.66189,57.13029 l -256.149437,0 c -27.77574,0 -58.1910502,-25.9669 -58.1910502,-57.48385 l 0,-368.1932 c 0,-21.82575 35.0363002,-57.32525 58.0813302,-57.32525 z"
       id="path4695"
       style="fill:#666666;fill-opacity:1;fill-rule:evenodd;stroke:#000000;stroke-width:0.99762845;stroke-opacity:0.30980392" />
  </g>
</svg>
