<?xml version="1.0" encoding="UTF-8" standalone="no"?>
<!-- Created with Inkscape (http://www.inkscape.org/) -->

<svg
   xmlns:dc="http://purl.org/dc/elements/1.1/"
   xmlns:cc="http://creativecommons.org/ns#"
   xmlns:rdf="http://www.w3.org/1999/02/22-rdf-syntax-ns#"
   xmlns:svg="http://www.w3.org/2000/svg"
   xmlns="http://www.w3.org/2000/svg"
   version="1.1"
   width="494"
   height="306"
   id="svg4759">
  <defs
     id="defs4761">
    <filter
       color-interpolation-filters="sRGB"
       id="filter4742">
      <feGaussianBlur
         id="feGaussianBlur4744"
         stdDeviation="1.9448744" />
    </filter>
    <filter
       color-interpolation-filters="sRGB"
       id="filter4742-7">
      <feGaussianBlur
         id="feGaussianBlur4744-0"
         stdDeviation="1.9448744" />
    </filter>
    <filter
       color-interpolation-filters="sRGB"
       id="filter4742-9">
      <feGaussianBlur
         id="feGaussianBlur4744-9"
         stdDeviation="1.9448744" />
    </filter>
  </defs>
  <metadata
     id="metadata4764">
    <rdf:RDF>
      <cc:Work
         rdf:about="">
        <dc:format>image/svg+xml</dc:format>
        <dc:type
           rdf:resource="http://purl.org/dc/dcmitype/StillImage" />
        <dc:title></dc:title>
      </cc:Work>
    </rdf:RDF>
  </metadata>
  <g
     transform="translate(0,-746.36218)"
     id="layer1">
    <path
       d="m 61.181166,752.20705 371.736134,0 c 48.28731,0 55.68783,24.99263 55.68783,56.28649 l 0,183.59519 c 0,35.47767 -24.53491,55.09317 -54.1726,55.09317 l -373.503904,0 c -22.99753,0 -55.2983798,-24.47 -55.2983798,-56.35587 l 0,-182.83757 c 0,-29.40971 29.5830198,-55.78141 55.5509198,-55.78141 z"
       id="rect4077"
       style="fill:#666666;fill-opacity:1;fill-rule:evenodd;stroke:#000000;stroke-width:1.02509522;stroke-opacity:0.30980392;display:inline;filter:url(#filter4742-9)" />
    <path
       d="m 61.181166,752.20705 371.736134,0 c 48.28731,0 55.68783,24.99263 55.68783,56.28649 l 0,183.59519 c 0,35.47767 -24.53491,55.09317 -54.1726,55.09317 l -373.503904,0 c -22.99753,0 -55.2983798,-24.47 -55.2983798,-56.35587 l 0,-182.83757 c 0,-29.40971 29.5830198,-55.78141 55.5509198,-55.78141 z"
       id="path4740"
       style="fill:#666666;fill-opacity:1;fill-rule:evenodd;stroke:#000000;stroke-width:1.02509522;stroke-opacity:0.30980392;display:inline" />
  </g>
</svg>
