<?xml version="1.0" encoding="UTF-8" standalone="no"?>
<!-- Created with Inkscape (http://www.inkscape.org/) -->

<svg
   xmlns:dc="http://purl.org/dc/elements/1.1/"
   xmlns:cc="http://creativecommons.org/ns#"
   xmlns:rdf="http://www.w3.org/1999/02/22-rdf-syntax-ns#"
   xmlns:svg="http://www.w3.org/2000/svg"
   xmlns="http://www.w3.org/2000/svg"
   version="1.1"
   width="130"
   height="130"
   id="svg10364"
   style="display:inline">
  <defs
     id="defs10366" />
  <metadata
     id="metadata10369">
    <rdf:RDF>
      <cc:Work
         rdf:about="">
        <dc:format>image/svg+xml</dc:format>
        <dc:type
           rdf:resource="http://purl.org/dc/dcmitype/StillImage" />
        <dc:title></dc:title>
      </cc:Work>
    </rdf:RDF>
  </metadata>
  <g
     transform="translate(0,-922.36215)"
     id="layer1"
     style="display:inline">
    <path
       d="m 49.036231,1049.7824 c -6.164034,-1.4926 -18.403012,-7.3984 -22.716983,-10.9619 l -3,-2.4781 8.71241,-8.7607 8.712411,-8.7606 4.212677,2.3677 c 2.316972,1.3022 6.721387,3.1412 9.787589,4.0866 4.556163,1.4049 5.618777,2.1518 5.81495,4.0876 0.231141,2.2809 -0.117374,1.114 -0.135419,1.6733 -0.128414,3.9802 0.113225,7.9638 0.194138,11.9453 0.05589,2.7503 0.201244,8.25 0.201244,8.25 l -3.25,-0.085 c -1.7875,-0.047 -5.627358,-0.6606 -8.533017,-1.3642 z"
       id="path11464"
       style="fill:#c8c8c8;fill-opacity:1" />
    <path
       d="m 68.038469,1039.0941 0.280779,-12.1375 5.493035,-1.4042 c 3.021169,-0.7723 7.851852,-2.7354 10.734851,-4.3625 2.882999,-1.627 5.681891,-2.9583 6.219763,-2.9583 1.634744,0 16.052353,14.6256 16.052353,16.284 0,5.2459 -24.127036,16.6692 -35.280781,16.7042 l -3.780779,0.012 0.280779,-12.1375 z"
       id="path11462"
       style="fill:#c8c8c8;fill-opacity:1" />
    <path
       d="m 106.31625,1034.4534 c -71.632637,12.9323 -35.816321,6.4662 0,0 z"
       id="path11460"
       style="fill:#c8c8c8;fill-opacity:1" />
    <path
       d="M 13.7315,1025.9816 C 6.85454,1016.5544 1.3319031,1001.8929 2.013931,994.87391 l 0.305317,-3.1422 11.885932,0 11.885933,0 1.405769,5.4931 c 0.773174,3.02109 2.737004,7.85169 4.364068,10.73469 1.627064,2.883 2.958298,5.8224 2.958298,6.532 0,1.9261 -14.276628,15.7401 -16.267244,15.7401 -0.946116,0 -3.115343,-1.9125 -4.820504,-4.25 z"
       id="path11458"
       style="fill:#c8c8c8;fill-opacity:1" />
    <path
       d="m 103.86384,1020.7765 -8.411239,-8.4552 2.66662,-4.8995 c 1.466639,-2.6947 3.287959,-7.3272 4.047389,-10.29469 l 1.38078,-5.3954 11.88593,0 11.88593,0 0.35274,2.5 c 0.55271,3.9173 -1.76017,12.82759 -5.37387,20.70279 -3.17936,6.9287 -8.00829,14.2971 -9.36964,14.2971 -0.35936,0 -4.43845,-3.8048 -9.06464,-8.4551 z"
       id="path11456"
       style="fill:#c8c8c8;fill-opacity:1" />
    <path
       d="m 116.13396,1023.4816 c -78.177777,20.2469 -39.088891,10.1234 0,0 z"
       id="path11454"
       style="fill:#c8c8c8;fill-opacity:1" />
    <path
       d="m 2.515948,984.59511 c -2.09763321,-2.0976 0.815372,-15.49309 5.280718,-24.28339 3.849703,-7.5783 8.715096,-14.0799 10.536583,-14.0799 0.825801,0 4.872977,3.3065 8.993728,7.3478 4.726282,4.63515 7.045224,5.9166 7.396928,7.95723 -2.706774,5.85584 -5.954545,12.18385 -7.404632,18.19496 l -1.147931,4.9999 -11.479347,0.2801 c -6.3136414,0.154 -11.792862,-0.034 -12.176047,-0.4167 z"
       id="path11452"
       style="fill:#4d4d4d;fill-opacity:1" />
    <path
       d="m 103.41431,984.01361 c -0.20166,-0.705 -0.9113,-3.3068 -1.57699,-5.7818 -0.66569,-2.475 -2.37691,-6.662 -3.802719,-9.30439 l -2.59237,-4.8043 8.743869,-8.6957 8.74386,-8.6956 2.4917,3 c 6.0505,7.2848 13.15041,26.12079 12.25033,32.49999 -0.3508,2.4862 -0.41751,2.5015 -12.12188,2.7818 -8.90726,0.2134 -11.8583,-0.03 -12.1358,-1 z"
       id="path11450"
       style="fill:#c8c8c8;fill-opacity:1" />
    <path
       d="m 126.81925,983.23181 c -85.301304,47.07999 -42.650654,23.53989 0,0 z"
       id="path11448"
       style="fill:#c8c8c8;fill-opacity:1" />
    <path
       d="m 85.337719,956.55052 c -2.170189,-1.4747 -7.112149,-3.6481 -10.982134,-4.8298 l -7.036337,-2.1485 0,-11.9202 0,-11.92023 7.5,0.0925 c 5.765693,0.0711 9.078336,0.73858 14.325504,2.88657 7.421719,3.03816 18.674498,10.74566 18.674498,12.79096 0,1.489 -16.065819,17.73 -17.538755,17.73 -0.548338,0 -2.772587,-1.2066 -4.942776,-2.6812 z"
       id="path11446"
       style="fill:#c8c8c8;fill-opacity:1" />
    <path
       d="m 31.79717,948.66952 -8.477922,-8.5622 3,-2.5364 c 6.603267,-5.58302 24.168262,-12.33913 32.08,-12.33913 l 2.481558,0 -0.280779,12.18623 -0.280779,12.1862 -4.690372,1.195 c -2.579705,0.6572 -6.798884,2.3734 -9.375953,3.8137 -2.57707,1.4404 -4.976337,2.6189 -5.331706,2.6189 -0.355368,0 -4.46119,-3.853 -9.124047,-8.5623 z"
       id="path11444"
       style="fill:#c8c8c8;fill-opacity:1" />
    <path
       d="m 33.169886,948.06272 c -22.868393,70.52608 -11.434197,35.26309 0,0 z"
       id="path10932"
       style="fill:#c8c8c8;fill-opacity:1" />
  </g>
</svg>
