<?xml version="1.0" encoding="UTF-8" standalone="no"?>
<!-- Created with Inkscape (http://www.inkscape.org/) -->

<svg
   xmlns:dc="http://purl.org/dc/elements/1.1/"
   xmlns:cc="http://creativecommons.org/ns#"
   xmlns:rdf="http://www.w3.org/1999/02/22-rdf-syntax-ns#"
   xmlns:svg="http://www.w3.org/2000/svg"
   xmlns="http://www.w3.org/2000/svg"
   version="1.1"
   width="375"
   height="375"
   id="svg3003"
   xml:space="preserve"><metadata
     id="metadata3009"><rdf:RDF><cc:Work
         rdf:about=""><dc:format>image/svg+xml</dc:format><dc:type
           rdf:resource="http://purl.org/dc/dcmitype/StillImage" /><dc:title></dc:title></cc:Work></rdf:RDF></metadata><defs
     id="defs3007"><clipPath
       id="clipPath3029"><path
         d="M 0,300 300,300 300,0 0,0 0,300 z"
         id="path3031" /></clipPath></defs><g
     transform="matrix(1.25,0,0,-1.25,0,375)"
     id="g3011"><g
       transform="translate(245.0078,84.8984)"
       id="g3013"><path
         d="m 0,0 -173.405,-13.189 -12.02,157.877 173.413,13.19 L 0,0 z"
         id="path3015"
         style="fill:#ffffff;fill-opacity:1;fill-rule:nonzero;stroke:none" /></g><g
       transform="translate(245.0078,84.8984)"
       id="g3017"><path
         d="m 0,0 -173.405,-13.189 -12.02,157.877 173.413,13.19 L 0,0 z"
         id="path3019"
         style="fill:none;stroke:#110f0e;stroke-width:2.72000003;stroke-linecap:butt;stroke-linejoin:miter;stroke-miterlimit:4;stroke-opacity:1;stroke-dasharray:none" /></g><g
       transform="translate(62.7495,178.0459)"
       id="g3021"><path
         d="m 0,0 -24.668,0 0,4.651 -27.224,-7.279 27.224,-7.284 0,4.641 L 0,-5.271 0,0 z"
         id="path3023"
         style="fill:#9a9a99;fill-opacity:1;fill-rule:nonzero;stroke:none" /></g><g
       id="g3025"><g
         clip-path="url(#clipPath3029)"
         id="g3027"><g
           transform="translate(176.0996,175.2012)"
           id="g3033"><path
             d="m 0,0 c 0,-7.697 -6.232,-13.927 -13.932,-13.927 -7.684,0 -13.932,6.23 -13.932,13.927 0,7.687 6.248,13.926 13.932,13.926 C -6.232,13.926 0,7.687 0,0"
             id="path3035"
             style="fill:#ffffff;fill-opacity:1;fill-rule:nonzero;stroke:none" /></g><g
           transform="translate(176.0996,175.2012)"
           id="g3037"><path
             d="m 0,0 c 0,-7.697 -6.232,-13.927 -13.932,-13.927 -7.684,0 -13.932,6.23 -13.932,13.927 0,7.687 6.248,13.926 13.932,13.926 C -6.232,13.926 0,7.687 0,0 z"
             id="path3039"
             style="fill:none;stroke:#110f0e;stroke-width:2.72000003;stroke-linecap:butt;stroke-linejoin:miter;stroke-miterlimit:4;stroke-opacity:1;stroke-dasharray:none" /></g><g
           transform="translate(223.6123,57.2227)"
           id="g3041"><path
             d="m 0,0 c 0,0 -3.272,9.018 -9.831,10.654 -6.544,1.639 -36.048,13.924 -43.426,26.203 -7.366,12.303 -13.917,24.588 -17.197,28.688 -3.278,4.094 0,6.555 5.736,5.74 5.732,-0.824 18.839,-16.392 18.839,-16.392 0,0 0.821,9.828 -3.278,18.021 -4.1,8.19 -17.202,40.969 -15.561,44.234 1.645,3.287 5.732,6.564 8.188,3.287 2.459,-3.287 22.132,-38.505 22.132,-38.505 0,0 -6.559,21.298 -1.65,22.122 4.915,0.814 18.847,-14.755 18.847,-14.755 0,0 -6.552,5.74 -0.815,6.562 5.729,0.814 11.473,-4.914 17.202,-8.199 C 4.923,84.393 21.303,74.561 22.946,67.182 24.583,59.807 20.48,56.529 31.961,48.338 43.422,40.146 44.248,36.857 44.248,36.857"
             id="path3043"
             style="fill:#ffffff;fill-opacity:1;fill-rule:nonzero;stroke:#110f0e;stroke-width:2.72000003;stroke-linecap:butt;stroke-linejoin:miter;stroke-miterlimit:4;stroke-opacity:1;stroke-dasharray:none" /></g><g
           transform="translate(237.2588,185.5205)"
           id="g3045"><path
             d="m 0,0 24.66,0 0,-4.651 L 51.884,2.636 24.66,9.91 24.66,5.261 0,5.261 0,0 z"
             id="path3047"
             style="fill:#9a9a99;fill-opacity:1;fill-rule:nonzero;stroke:none" /></g></g></g></g></svg>