<?xml version="1.0" encoding="UTF-8" standalone="no"?>
<!-- Created with Inkscape (http://www.inkscape.org/) -->

<svg
   xmlns:dc="http://purl.org/dc/elements/1.1/"
   xmlns:cc="http://creativecommons.org/ns#"
   xmlns:rdf="http://www.w3.org/1999/02/22-rdf-syntax-ns#"
   xmlns:svg="http://www.w3.org/2000/svg"
   xmlns="http://www.w3.org/2000/svg"
   version="1.1"
   width="375"
   height="375"
   id="svg3077"
   xml:space="preserve"><metadata
     id="metadata3083"><rdf:RDF><cc:Work
         rdf:about=""><dc:format>image/svg+xml</dc:format><dc:type
           rdf:resource="http://purl.org/dc/dcmitype/StillImage" /><dc:title></dc:title></cc:Work></rdf:RDF></metadata><defs
     id="defs3081"><clipPath
       id="clipPath3107"><path
         d="M 0,300 300,300 300,0 0,0 0,300 z"
         id="path3109" /></clipPath></defs><g
     transform="matrix(1.25,0,0,-1.25,0,375)"
     id="g3085"><g
       transform="translate(256.4561,95.7559)"
       id="g3087"><path
         d="M 0,0 -183.226,-43.359 -222.701,123.45 -39.473,166.818 0,0 z"
         id="path3089"
         style="fill:#ffffff;fill-opacity:1;fill-rule:nonzero;stroke:none" /></g><g
       transform="translate(256.4561,95.7559)"
       id="g3091"><path
         d="M 0,0 -183.226,-43.359 -222.701,123.45 -39.473,166.818 0,0 z"
         id="path3093"
         style="fill:none;stroke:#a7a5a6;stroke-width:3.07800007;stroke-linecap:butt;stroke-linejoin:miter;stroke-miterlimit:4;stroke-opacity:1;stroke-dasharray:9.234;stroke-dashoffset:0" /></g><g
       transform="translate(251.3711,70.3281)"
       id="g3095"><path
         d="M 0,0 -187.743,-14.279 -200.752,156.65 -13.005,170.927 0,0 z"
         id="path3097"
         style="fill:#ffffff;fill-opacity:1;fill-rule:nonzero;stroke:none" /></g><g
       transform="translate(251.3711,70.3281)"
       id="g3099"><path
         d="M 0,0 -187.743,-14.279 -200.752,156.65 -13.005,170.927 0,0 z"
         id="path3101"
         style="fill:none;stroke:#110f0d;stroke-width:3.07800007;stroke-linecap:butt;stroke-linejoin:miter;stroke-miterlimit:4;stroke-opacity:1;stroke-dasharray:none" /></g><g
       id="g3103"><g
         clip-path="url(#clipPath3107)"
         id="g3105"><g
           transform="translate(163.0859,200.9917)"
           id="g3111"><path
             d="m 0,0 -21.218,11.047 -0.816,-3.676 c -30.157,-0.76 -54.465,-24.17 -54.465,-52.882 l 5.568,0 c 0,25.255 21.132,45.906 47.639,47.259 L -23.898,-1.022 0,0 z"
             id="path3113"
             style="fill:#9a9a99;fill-opacity:1;fill-rule:nonzero;stroke:none" /></g><g
           transform="translate(117.6992,115.4453)"
           id="g3115"><path
             d="m 0,0 18.483,-15.195 1.557,3.431 c 29.655,-5.482 58.279,12.395 64.207,40.487 l -5.44,1.152 C 73.576,5.164 48.633,-10.668 22.425,-6.514 L 23.586,-3.936 0,0 z"
             id="path3117"
             style="fill:#9a9a99;fill-opacity:1;fill-rule:nonzero;stroke:none" /></g><g
           transform="translate(101.7676,161.0464)"
           id="g3119"><path
             d="m 0,0 c 0,-6.533 -5.284,-11.826 -11.824,-11.826 -6.53,0 -11.814,5.293 -11.814,11.826 0,6.527 5.284,11.824 11.814,11.824 C -5.284,11.824 0,6.527 0,0"
             id="path3121"
             style="fill:#ffffff;fill-opacity:1;fill-rule:nonzero;stroke:none" /></g><g
           transform="translate(101.7676,161.0464)"
           id="g3123"><path
             d="m 0,0 c 0,-6.533 -5.284,-11.826 -11.824,-11.826 -6.53,0 -11.814,5.293 -11.814,11.826 0,6.527 5.284,11.824 11.814,11.824 C -5.284,11.824 0,6.527 0,0 z"
             id="path3125"
             style="fill:none;stroke:#110f0d;stroke-width:2.30900002;stroke-linecap:butt;stroke-linejoin:miter;stroke-miterlimit:4;stroke-opacity:1;stroke-dasharray:none" /></g><g
           transform="translate(211.4863,141.5723)"
           id="g3127"><path
             d="m 0,0 c 0,-6.527 -5.295,-11.818 -11.824,-11.818 -6.53,0 -11.821,5.291 -11.821,11.818 0,6.537 5.291,11.826 11.821,11.826 C -5.295,11.826 0,6.537 0,0"
             id="path3129"
             style="fill:#ffffff;fill-opacity:1;fill-rule:nonzero;stroke:none" /></g><g
           transform="translate(211.4863,141.5723)"
           id="g3131"><path
             d="m 0,0 c 0,-6.527 -5.295,-11.818 -11.824,-11.818 -6.53,0 -11.821,5.291 -11.821,11.818 0,6.537 5.291,11.826 11.821,11.826 C -5.295,11.826 0,6.537 0,0 z"
             id="path3133"
             style="fill:none;stroke:#110f0d;stroke-width:2.30900002;stroke-linecap:butt;stroke-linejoin:miter;stroke-miterlimit:4;stroke-opacity:1;stroke-dasharray:none" /></g><g
           transform="translate(9.269,79.6699)"
           id="g3135"><path
             d="m 0,0 c 0,0 4.874,-4.863 11.824,11.826 6.957,16.69 11.129,34.772 18.072,38.252 6.962,3.481 11.136,11.123 13.227,11.123 2.087,0 6.259,1.393 6.259,-3.48 0,-4.869 1.389,6.265 6.95,6.957 5.565,0.695 7.653,0 6.961,-6.266 L 62.595,52.16 c 0,0 9.038,27.814 12.518,31.295 3.474,3.483 7.653,2.085 7.653,-2.781 0,-4.863 -6.264,-31.297 -6.961,-39.643 -0.692,-8.343 -1.383,-22.943 -1.383,-22.943 0,0 2.08,20.855 8.344,22.943 6.252,2.09 12.517,4.172 11.819,0.701 C 93.881,38.252 88.327,22.951 86.933,17.391 85.55,11.826 75.113,-1.391 64.689,-6.953 54.251,-12.516 47.993,-18.781 43.123,-28.514"
             id="path3137"
             style="fill:#ffffff;fill-opacity:1;fill-rule:nonzero;stroke:#110f0d;stroke-width:2.30900002;stroke-linecap:butt;stroke-linejoin:miter;stroke-miterlimit:4;stroke-opacity:1;stroke-dasharray:none" /></g><g
           transform="translate(251.8262,41.4258)"
           id="g3139"><path
             d="m 0,0 c 0,0 -2.789,7.652 -8.356,9.045 -5.555,1.393 -30.595,11.818 -36.854,22.254 -6.257,10.437 -11.824,20.861 -14.603,24.342 -2.789,3.474 0,5.562 4.864,4.871 4.865,-0.705 15.998,-13.912 15.998,-13.912 0,0 0.705,8.343 -2.789,15.295 -3.47,6.962 -14.596,34.779 -13.209,37.56 1.395,2.781 4.865,5.572 6.957,2.781 2.091,-2.781 18.781,-32.687 18.781,-32.687 0,0 -5.572,18.082 -1.393,18.779 4.182,0.701 16.001,-12.523 16.001,-12.523 0,0 -5.567,4.869 -0.702,5.568 4.864,0.691 9.744,-4.172 14.61,-6.961 4.863,-2.779 18.781,-11.123 20.17,-17.381 1.387,-6.254 -2.093,-9.043 7.646,-15.998 9.739,-6.955 10.431,-9.734 10.431,-9.734"
             id="path3141"
             style="fill:#ffffff;fill-opacity:1;fill-rule:nonzero;stroke:#110f0d;stroke-width:2.30900002;stroke-linecap:butt;stroke-linejoin:miter;stroke-miterlimit:4;stroke-opacity:1;stroke-dasharray:none" /></g></g></g></g></svg>