<?xml version="1.0" encoding="UTF-8" standalone="no"?>
<!-- Created with Inkscape (http://www.inkscape.org/) -->

<svg
   xmlns:dc="http://purl.org/dc/elements/1.1/"
   xmlns:cc="http://creativecommons.org/ns#"
   xmlns:rdf="http://www.w3.org/1999/02/22-rdf-syntax-ns#"
   xmlns:svg="http://www.w3.org/2000/svg"
   xmlns="http://www.w3.org/2000/svg"
   version="1.1"
   width="375"
   height="375"
   id="svg3143"
   xml:space="preserve"><metadata
     id="metadata3149"><rdf:RDF><cc:Work
         rdf:about=""><dc:format>image/svg+xml</dc:format><dc:type
           rdf:resource="http://purl.org/dc/dcmitype/StillImage" /><dc:title></dc:title></cc:Work></rdf:RDF></metadata><defs
     id="defs3147"><clipPath
       id="clipPath3157"><path
         d="M 0,300 300,300 300,0 0,0 0,300 z"
         id="path3159" /></clipPath></defs><g
     transform="matrix(1.25,0,0,-1.25,0,375)"
     id="g3151"><g
       id="g3153"><g
         clip-path="url(#clipPath3157)"
         id="g3155"><g
           transform="translate(136.2539,226.1055)"
           id="g3161"><path
             d="m 0,0 c 0,-22.66 -18.355,-41.027 -41.016,-41.027 -22.652,0 -41.007,18.367 -41.007,41.027 0,22.648 18.355,41.023 41.007,41.023 C -18.355,41.023 0,22.648 0,0"
             id="path3163"
             style="fill:#ffffff;fill-opacity:1;fill-rule:nonzero;stroke:none" /></g><g
           transform="translate(136.2539,226.1055)"
           id="g3165"><path
             d="m 0,0 c 0,-22.66 -18.355,-41.027 -41.016,-41.027 -22.652,0 -41.007,18.367 -41.007,41.027 0,22.648 18.355,41.023 41.007,41.023 C -18.355,41.023 0,22.648 0,0 z"
             id="path3167"
             style="fill:none;stroke:#a7a5a6;stroke-width:5.5999999;stroke-linecap:butt;stroke-linejoin:miter;stroke-miterlimit:4;stroke-opacity:1;stroke-dasharray:none" /></g><g
           transform="translate(116.7383,226.1055)"
           id="g3169"><path
             d="m 0,0 c 0,-11.887 -9.613,-21.512 -21.5,-21.512 -11.879,0 -21.516,9.625 -21.516,21.512 0,11.879 9.637,21.508 21.516,21.508 C -9.613,21.508 0,11.879 0,0"
             id="path3171"
             style="fill:#ffffff;fill-opacity:1;fill-rule:nonzero;stroke:none" /></g><g
           transform="translate(116.7383,226.1055)"
           id="g3173"><path
             d="m 0,0 c 0,-11.887 -9.613,-21.512 -21.5,-21.512 -11.879,0 -21.516,9.625 -21.516,21.512 0,11.879 9.637,21.508 21.516,21.508 C -9.613,21.508 0,11.879 0,0 z"
             id="path3175"
             style="fill:none;stroke:#110f0e;stroke-width:4.19999981;stroke-linecap:butt;stroke-linejoin:miter;stroke-miterlimit:4;stroke-opacity:1;stroke-dasharray:none" /></g><g
           transform="translate(190.1211,43.8984)"
           id="g3177"><path
             d="m 0,0 c 0,0 -5.043,13.914 -15.172,16.449 -10.117,2.539 -55.66,21.504 -67.058,40.492 -11.395,18.977 -21.512,37.965 -26.579,44.286 -5.05,6.328 0,10.117 8.871,8.859 8.848,-1.262 29.106,-25.309 29.106,-25.309 0,0 1.258,15.18 -5.074,27.848 -6.324,12.641 -26.571,63.25 -24.032,68.313 2.528,5.058 8.848,10.117 12.645,5.058 3.805,-5.058 34.168,-59.473 34.168,-59.473 0,0 -10.117,32.907 -2.547,34.172 7.609,1.266 29.113,-22.773 29.113,-22.773 0,0 -10.105,8.855 -1.257,10.117 8.847,1.27 17.707,-7.59 26.566,-12.656 C 7.602,130.32 32.922,115.148 35.438,103.766 37.961,92.363 31.652,87.305 49.359,74.66 67.066,61.992 68.324,56.941 68.324,56.941"
             id="path3179"
             style="fill:#ffffff;fill-opacity:1;fill-rule:nonzero;stroke:#110f0e;stroke-width:4.19999981;stroke-linecap:butt;stroke-linejoin:miter;stroke-miterlimit:4;stroke-opacity:1;stroke-dasharray:none" /></g></g></g></g></svg>