<?xml version="1.0" encoding="UTF-8" standalone="no"?>
<!-- Created with Inkscape (http://www.inkscape.org/) -->

<svg
   xmlns:dc="http://purl.org/dc/elements/1.1/"
   xmlns:cc="http://creativecommons.org/ns#"
   xmlns:rdf="http://www.w3.org/1999/02/22-rdf-syntax-ns#"
   xmlns:svg="http://www.w3.org/2000/svg"
   xmlns="http://www.w3.org/2000/svg"
   version="1.1"
   width="375"
   height="375"
   id="svg3181"
   xml:space="preserve"><metadata
     id="metadata3187"><rdf:RDF><cc:Work
         rdf:about=""><dc:format>image/svg+xml</dc:format><dc:type
           rdf:resource="http://purl.org/dc/dcmitype/StillImage" /><dc:title></dc:title></cc:Work></rdf:RDF></metadata><defs
     id="defs3185"><clipPath
       id="clipPath3207"><path
         d="M 0,300 300,300 300,0 0,0 0,300 z"
         id="path3209" /></clipPath></defs><g
     transform="matrix(1.25,0,0,-1.25,0,375)"
     id="g3189"><g
       transform="translate(27.6426,270.876)"
       id="g3191"><path
         d="m 0,0 163.127,0 0,-80.5"
         id="path3193"
         style="fill:none;stroke:#a7a5a6;stroke-width:7.65899992;stroke-linecap:butt;stroke-linejoin:miter;stroke-miterlimit:4;stroke-opacity:1;stroke-dasharray:7.659, 3.829;stroke-dashoffset:0" /></g><g
       transform="translate(18.6001,205.731)"
       id="g3195"><path
         d="M 0,0 0,70.979"
         id="path3197"
         style="fill:none;stroke:#a7a5a6;stroke-width:7.65899992;stroke-linecap:butt;stroke-linejoin:miter;stroke-miterlimit:4;stroke-opacity:1;stroke-dasharray:7.659, 3.829;stroke-dashoffset:0" /></g><g
       transform="translate(190.9785,178.4614)"
       id="g3199"><path
         d="m 0,0 -172.378,0 0,28.631"
         id="path3201"
         style="fill:none;stroke:#a7a5a6;stroke-width:7.65899992;stroke-linecap:round;stroke-linejoin:miter;stroke-miterlimit:4;stroke-opacity:1;stroke-dasharray:none" /></g><g
       id="g3203"><g
         clip-path="url(#clipPath3207)"
         id="g3205"><g
           transform="translate(185.1943,180.5293)"
           id="g3211"><path
             d="m 0,0 c -4.944,2.738 -6.777,8.908 -4.063,13.762 2.686,4.854 8.894,6.552 13.831,3.815 C 14.719,14.824 16.543,8.654 13.852,3.8 11.151,-1.054 4.951,-2.752 0,0"
             id="path3213"
             style="fill:#3744a1;fill-opacity:1;fill-rule:nonzero;stroke:none" /></g><g
           transform="translate(177.2539,166.5732)"
           id="g3215"><path
             d="m 0,0 c -4.943,2.745 -6.769,8.908 -4.062,13.762 2.687,4.854 8.887,6.559 13.838,3.822 4.944,-2.76 6.769,-8.93 4.076,-13.785 C 11.152,-1.054 4.952,-2.752 0,0"
             id="path3217"
             style="fill:#e82124;fill-opacity:1;fill-rule:nonzero;stroke:none" /></g><g
           transform="translate(235.1934,32.249)"
           id="g3219"><path
             d="m 0,0 c 0,0 -0.558,12.805 -7.547,16.544 -17.716,9.454 -39.719,27.337 -40.041,32.871 -5.855,24.092 -9.289,26.365 -2.113,32.371 3.169,2.648 7.722,8.698 10.547,2.521 4.928,-10.763 1.809,-19.125 1.809,-19.125 0,0 2.131,12.946 -3.294,22.228 -15.935,27.3 -17.147,46.783 -15.856,50.889 0.743,2.393 9.345,9.02 11.409,0.412 7.263,-30.374 24.263,-46.962 24.263,-46.962 0,0 -9.394,13.5 -3.695,14.83 9.382,2.185 21.174,-12.303 21.174,-12.303 0,0 -16.156,12.073 -9.424,12.924 12.337,1.564 16.287,-5.459 19.218,-9.072 1.593,-1.952 -6.225,5.161 -4.906,5.564 C 17.086,108.457 22.052,87.598 24.592,84.681 29.696,78.839 38.114,62.19 37.104,53.388 36.09,44.584 30.29,42.521 39.872,29.027 c 9.569,-13.485 9.23,-17.419 9.23,-17.419"
             id="path3221"
             style="fill:#ffffff;fill-opacity:1;fill-rule:nonzero;stroke:#110f0d;stroke-width:3.829;stroke-linecap:butt;stroke-linejoin:miter;stroke-miterlimit:4;stroke-opacity:1;stroke-dasharray:none" /></g></g></g></g></svg>