<?xml version="1.0" encoding="UTF-8" standalone="no"?>
<!-- Created with Inkscape (http://www.inkscape.org/) -->

<svg
   xmlns:dc="http://purl.org/dc/elements/1.1/"
   xmlns:cc="http://creativecommons.org/ns#"
   xmlns:rdf="http://www.w3.org/1999/02/22-rdf-syntax-ns#"
   xmlns:svg="http://www.w3.org/2000/svg"
   xmlns="http://www.w3.org/2000/svg"
   version="1.1"
   width="375"
   height="375"
   id="svg3305"
   xml:space="preserve"><metadata
     id="metadata3311"><rdf:RDF><cc:Work
         rdf:about=""><dc:format>image/svg+xml</dc:format><dc:type
           rdf:resource="http://purl.org/dc/dcmitype/StillImage" /><dc:title></dc:title></cc:Work></rdf:RDF></metadata><defs
     id="defs3309"><clipPath
       id="clipPath3319"><path
         d="M 0,300 300,300 300,0 0,0 0,300 z"
         id="path3321" /></clipPath></defs><g
     transform="matrix(1.25,0,0,-1.25,0,375)"
     id="g3313"><g
       id="g3315"><g
         clip-path="url(#clipPath3319)"
         id="g3317"><g
           transform="translate(164.5938,235.1035)"
           id="g3323"><path
             d="m 0,0 c 3.63,-2.444 5.313,-5.985 8.109,-9.09 4.735,-5.263 10.596,-9.977 15.616,-15.056 13.167,-13.317 26.334,-27.693 39.324,-40.555 11.137,-11.028 29.262,-25.504 37.925,-34.327 0.372,21.322 1.02,8.746 0.372,21.322 -0.889,17.395 0.053,19.199 0.099,36.273 0.032,12.102 -0.871,31.305 -0.185,43.287 C 90.418,-16.851 64.647,-33.76 49.766,-49.985 30.668,-70.798 16.389,-81.305 -5.899,-98.728"
             id="path3325"
             style="fill:none;stroke:#a7a5a6;stroke-width:11.86200047;stroke-linecap:round;stroke-linejoin:round;stroke-miterlimit:4;stroke-opacity:1;stroke-dasharray:none" /></g><g
           transform="translate(159.0576,225.0176)"
           id="g3327"><path
             d="m 0,0 c -5.105,2.834 -6.989,9.201 -4.193,14.213 2.771,5.013 9.174,6.769 14.286,3.943 C 15.198,15.31 17.082,8.939 14.302,3.927 11.514,-1.085 5.111,-2.842 0,0"
             id="path3329"
             style="fill:#e82124;fill-opacity:1;fill-rule:nonzero;stroke:none" /></g><g
           transform="translate(89.6885,101.6523)"
           id="g3331"><path
             d="m 0,0 c 0,0 1.704,13.131 9.226,16.351 19.064,8.169 43.267,24.624 44.087,30.29 8.159,24.25 11.893,26.294 5.038,33.101 -3.019,3.01 -7.177,9.642 -10.635,3.529 -6.014,-10.634 -3.544,-19.51 -3.544,-19.51 0,0 -1.048,13.506 5.35,22.572 18.807,26.687 21.762,46.626 20.802,50.948 -0.55,2.536 -8.82,10.112 -11.703,1.434 -10.14,-30.606 -29.092,-46.17 -29.092,-46.17 0,0 10.847,13.063 5.104,14.934 -9.452,3.077 -22.869,-10.786 -22.869,-10.786 0,0 17.686,10.996 10.825,12.462 C 10.039,111.86 5.36,104.967 2.022,101.517 0.203,99.651 8.89,106.271 7.564,106.811 -8.001,113.074 -14.964,92.064 -17.833,89.293 -23.6,83.735 -33.715,67.345 -33.467,58.191 -33.206,49.051 -27.417,46.42 -38.46,33.383 -49.506,20.361 -49.5,16.278 -49.5,16.278"
             id="path3333"
             style="fill:#ffffff;fill-opacity:1;fill-rule:nonzero;stroke:none" /></g><g
           transform="translate(91.5562,101.373)"
           id="g3335"><path
             d="m 0,0 c 0,0 1.351,13.175 8.781,16.592 18.835,8.681 42.59,25.778 43.262,31.467 7.499,24.461 11.174,26.604 4.147,33.226 -3.104,2.927 -7.437,9.445 -10.734,3.24 -5.723,-10.792 -3.012,-19.596 -3.012,-19.596 0,0 -1.413,13.472 4.734,22.704 18.086,27.185 20.504,47.194 19.431,51.492 -0.618,2.517 -9.09,9.869 -11.739,1.119 -9.314,-30.871 -27.841,-46.938 -27.841,-46.938 0,0 10.488,13.352 4.696,15.067 -9.53,2.822 -22.566,-11.395 -22.566,-11.395 0,0 17.383,11.464 10.487,12.747 -12.618,2.366 -17.113,-4.65 -20.356,-8.19 -1.761,-1.912 6.742,4.938 5.398,5.444 C -11.043,112.817 -17.43,91.63 -20.226,88.784 -25.84,83.069 -35.517,66.416 -35.022,57.272 -34.513,48.144 -28.659,45.669 -39.347,32.339 -50.035,19.025 -49.919,14.943 -49.919,14.943"
             id="path3337"
             style="fill:none;stroke:#110f0d;stroke-width:3.954;stroke-linecap:butt;stroke-linejoin:miter;stroke-miterlimit:4;stroke-opacity:1;stroke-dasharray:none" /></g><g
           transform="translate(153.6582,131.627)"
           id="g3339"><path
             d="m 0,0 c -5.103,2.83 -6.996,9.201 -4.193,14.214 2.772,5.012 9.182,6.765 14.28,3.939 C 15.199,15.311 17.083,8.939 14.303,3.927 11.516,-1.085 5.114,-2.843 0,0"
             id="path3341"
             style="fill:#3744a1;fill-opacity:1;fill-rule:nonzero;stroke:none" /></g></g></g></g></svg>